<?xml version="1.0" encoding="UTF-8" standalone="no"?>
<!DOCTYPE svg PUBLIC "-//W3C//DTD SVG 1.1//EN" "http://www.w3.org/Graphics/SVG/1.1/DTD/svg11.dtd">
<svg width="100%" height="100%" viewBox="0 0 500 800" version="1.1" xmlns="http://www.w3.org/2000/svg" xmlns:xlink="http://www.w3.org/1999/xlink" xml:space="preserve" xmlns:serif="http://www.serif.com/" style="fill-rule:evenodd;clip-rule:evenodd;stroke-linejoin:round;stroke-miterlimit:2;">
    <g transform="matrix(4.07728,0,0,4.07728,-150.002,0)">
        <path d="M137.768,100.39C137.607,100.228 137.372,100.01 137.075,99.74C135.18,98.024 133.245,95.86 133.245,92.824C133.245,90.842 134.389,88.589 136.645,86.128C136.778,85.983 136.885,85.865 136.964,85.775C145.244,76.345 149.804,64.243 149.804,51.697C149.803,23.191 126.61,0 98.104,0C69.598,0 46.406,23.191 46.406,51.697C46.406,64.242 50.966,76.345 59.247,85.776C59.325,85.865 59.432,85.983 59.565,86.128C61.821,88.589 62.965,90.842 62.965,92.824C62.965,95.859 61.029,98.023 59.135,99.74C58.838,100.01 58.603,100.228 58.442,100.389C47.825,110.994 41.978,125.092 41.978,140.084C41.978,171.031 67.157,196.209 98.106,196.209C129.054,196.209 154.232,171.031 154.232,140.084C154.232,125.092 148.385,110.995 137.768,100.39ZM98.105,181.209L98.103,181.209C75.426,181.209 56.977,162.76 56.977,140.084C56.977,129.102 61.262,118.773 68.986,111.056L69.208,110.854C75.019,105.588 77.965,99.522 77.965,92.824C77.965,86.97 75.495,81.307 70.623,75.992L70.518,75.877C64.642,69.186 61.407,60.598 61.407,51.697C61.406,31.462 77.869,15 98.105,15C118.34,15 134.802,31.462 134.802,51.697C134.802,60.598 131.567,69.186 125.704,75.862L125.585,75.992C120.713,81.307 118.243,86.97 118.243,92.824C118.243,99.522 121.189,105.588 127,110.854L127.165,111.002C134.945,118.773 139.231,129.102 139.231,140.084C139.232,162.76 120.782,181.209 98.105,181.209Z" style="fill-rule:nonzero;"/>
        <path d="M84.176,78.039C85.132,78.039 86.098,77.764 86.952,77.193C89.247,75.656 89.862,72.55 88.326,70.255C86.938,68.183 85.336,66.148 83.56,64.208C82.382,62.843 81.405,61.323 80.654,59.688C79.501,57.178 76.532,56.075 74.024,57.229C71.514,58.381 70.414,61.35 71.566,63.86C72.743,66.424 74.286,68.801 76.151,70.924C76.208,70.99 76.266,71.053 76.325,71.113C77.704,72.635 78.944,74.217 80.015,75.816C80.98,77.26 82.563,78.039 84.176,78.039Z" style="fill-rule:nonzero;"/>
        <path d="M74.435,51.084C74.683,51.119 74.93,51.139 75.173,51.139C77.611,51.139 79.745,49.354 80.113,46.869C80.656,43.199 82.255,39.781 84.735,36.982C86.566,34.914 86.376,31.756 84.309,29.923C82.243,28.091 79.082,28.284 77.25,30.349C73.479,34.605 71.048,39.81 70.22,45.404C69.816,48.137 71.703,50.68 74.435,51.084Z" style="fill-rule:nonzero;"/>
        <path d="M108.825,78.086C109.657,78.613 110.586,78.867 111.503,78.867C113.156,78.867 114.774,78.047 115.728,76.549C116.952,74.623 118.413,72.727 120.07,70.912C120.097,70.883 120.124,70.851 120.15,70.822C121.726,69.009 123.076,67.004 124.161,64.863C125.409,62.4 124.424,59.39 121.961,58.142C119.495,56.892 116.489,57.878 115.241,60.343C114.536,61.734 113.662,63.036 112.641,64.216C110.612,66.445 108.811,68.786 107.288,71.183C105.807,73.514 106.495,76.604 108.825,78.086Z" style="fill-rule:nonzero;"/>
        <path d="M116.189,47.6C116.468,50.163 118.635,52.059 121.154,52.059C121.335,52.059 121.517,52.049 121.702,52.03C124.447,51.729 126.43,49.262 126.131,46.516C125.518,40.891 123.288,35.596 119.683,31.202C117.931,29.067 114.781,28.755 112.646,30.509C110.511,32.259 110.201,35.409 111.953,37.546C114.322,40.432 115.787,43.91 116.189,47.6Z" style="fill-rule:nonzero;"/>
        <path d="M98.104,149.709C95.342,149.709 93.104,151.947 93.104,154.709L93.104,168.709C93.104,171.471 95.342,173.709 98.104,173.709C100.866,173.709 103.104,171.471 103.104,168.709L103.104,154.709C103.104,151.947 100.865,149.709 98.104,149.709Z" style="fill-rule:nonzero;"/>
        <path d="M98.104,117.906C95.342,117.906 93.104,120.144 93.104,122.906L93.104,136.906C93.104,139.668 95.342,141.906 98.104,141.906C100.866,141.906 103.104,139.668 103.104,136.906L103.104,122.906C103.104,120.145 100.865,117.906 98.104,117.906Z" style="fill-rule:nonzero;"/>
        <path d="M105.104,93.105L91.104,93.105C88.342,93.105 86.104,95.343 86.104,98.105C86.104,100.867 88.342,103.105 91.104,103.105L105.104,103.105C107.866,103.105 110.104,100.867 110.104,98.105C110.104,95.344 107.865,93.105 105.104,93.105Z" style="fill-rule:nonzero;"/>
        <path d="M98.104,78.303C100.866,78.303 103.104,76.065 103.104,73.303L103.104,59.303C103.104,56.541 100.866,54.303 98.104,54.303C95.342,54.303 93.104,56.541 93.104,59.303L93.104,73.303C93.104,76.064 95.342,78.303 98.104,78.303Z" style="fill-rule:nonzero;"/>
        <path d="M98.104,46.5C100.866,46.5 103.104,44.262 103.104,41.5L103.104,27.5C103.104,24.738 100.866,22.5 98.104,22.5C95.342,22.5 93.104,24.738 93.104,27.5L93.104,41.5C93.104,44.262 95.342,46.5 98.104,46.5Z" style="fill-rule:nonzero;"/>
        <path d="M118.673,133.52C119.825,136.03 122.794,137.133 125.302,135.979C127.812,134.827 128.913,131.858 127.761,129.348C126.583,126.784 125.04,124.407 123.175,122.284C123.118,122.218 123.06,122.155 123.001,122.095C121.622,120.574 120.382,118.991 119.312,117.392C118.347,115.951 116.765,115.171 115.152,115.171C114.195,115.171 113.23,115.446 112.375,116.017C110.08,117.554 109.465,120.66 111.002,122.955C112.389,125.027 113.992,127.062 115.768,129.002C116.944,130.365 117.921,131.885 118.673,133.52Z" style="fill-rule:nonzero;"/>
        <path d="M84.501,115.123C83.669,114.596 82.741,114.342 81.823,114.342C80.171,114.342 78.552,115.162 77.598,116.66C76.375,118.586 74.914,120.482 73.256,122.297C73.229,122.326 73.203,122.358 73.176,122.387C71.6,124.2 70.25,126.205 69.166,128.346C67.918,130.809 68.902,133.819 71.365,135.067C73.832,136.317 76.838,135.331 78.086,132.866C78.791,131.475 79.664,130.173 80.686,128.993C82.715,126.764 84.516,124.423 86.038,122.026C87.521,119.695 86.831,116.605 84.501,115.123Z" style="fill-rule:nonzero;"/>
        <path d="M77.138,148.609C76.859,146.046 74.691,144.15 72.173,144.15C71.991,144.15 71.81,144.16 71.624,144.179C68.88,144.48 66.897,146.947 67.196,149.693C67.809,155.318 70.038,160.613 73.643,165.007C75.395,167.142 78.545,167.454 80.68,165.7C82.815,163.95 83.125,160.8 81.373,158.663C79.005,155.777 77.54,152.299 77.138,148.609Z" style="fill-rule:nonzero;"/>
        <path d="M124.892,145.125C124.644,145.09 124.398,145.07 124.154,145.07C121.716,145.07 119.582,146.855 119.215,149.34C118.672,153.01 117.072,156.428 114.592,159.227C112.762,161.295 112.951,164.454 115.018,166.286C117.084,168.118 120.245,167.925 122.077,165.86C125.848,161.604 128.28,156.399 129.108,150.805C129.511,148.072 127.624,145.529 124.892,145.125Z" style="fill-rule:nonzero;"/>
    </g>
</svg>
